<svg width="190" height="54" viewBox="0 0 190 54" fill="none" xmlns="http://www.w3.org/2000/svg">
<g id="Vrstva_1" clip-path="url(#clip0_2121_94)">
<path id="Vector" d="M32.5275 52.5303V52.6561C32.5275 52.8368 32.4706 52.9861 32.3486 53.104C32.1533 53.2926 31.7873 53.3869 31.2668 53.3869H23.3606C23.2793 53.3869 23.1979 53.3868 23.1247 53.379C23.084 53.379 23.0352 53.3711 22.9946 53.3711C22.9295 53.3711 22.8644 53.3554 22.8075 53.3397C22.7261 53.324 22.6529 53.3083 22.5879 53.2847C22.4577 53.2375 22.352 53.1747 22.2706 53.104C22.23 53.0647 22.1974 53.0254 22.173 52.9782C22.1486 52.9389 22.1324 52.8997 22.1161 52.8525C22.0998 52.7896 22.0917 52.7268 22.0917 52.6561V52.5303C22.0917 52.2474 22.474 51.8231 23.2304 51.2495C23.4257 51.1002 23.5883 50.9509 23.7348 50.7859C23.7836 50.7309 23.8242 50.6837 23.8568 50.6287C23.9218 50.558 23.9706 50.4873 24.0032 50.4165C24.0764 50.3222 24.1333 50.2201 24.1658 50.1101C24.2228 50.0001 24.2635 49.8822 24.296 49.7565C24.3204 49.6622 24.3367 49.5679 24.3529 49.4657C24.3529 49.3714 24.3692 49.2693 24.3692 49.1671V46.5583L24.4017 36.5786C24.4017 36.1465 24.4017 35.7221 24.3692 35.3057C24.2391 32.4296 23.6209 30.1823 22.4008 28.5714C21.0099 26.7405 18.8544 25.8211 16.6176 25.8211C14.3808 25.8211 11.7291 26.6147 10.2487 28.202C8.76836 29.7972 8.0363 31.8089 8.0363 34.2527V49.1671C8.0363 49.2457 8.0363 49.3243 8.05257 49.395C8.11764 50.1179 8.50807 50.7309 9.24012 51.2495C10.0372 51.8231 10.4439 52.2474 10.4439 52.5303V52.6561C10.4439 53.0647 10.143 53.3004 9.54921 53.3711C9.43534 53.379 9.31333 53.3869 9.17505 53.3869H1.26889C0.422963 53.3869 0 53.1433 0 52.6561V52.5303C0 52.381 0.105741 52.1924 0.325356 51.9567C0.512436 51.7524 0.780855 51.5167 1.13875 51.2495C1.26889 51.1552 1.38276 51.053 1.48851 50.943C2.01721 50.4323 2.27749 49.8429 2.27749 49.1671V14.2699C2.27749 13.7355 2.11482 13.2562 1.78946 12.8161C1.61865 12.5882 1.39903 12.3682 1.13875 12.1639C0.56124 11.716 0.203348 11.3467 0.0650713 11.0717C0.0244017 10.9852 0 10.9145 0 10.8438V10.7259C0 10.4037 0.178946 10.1916 0.544972 10.0816C0.732052 10.0265 0.976069 9.99512 1.26889 9.99512H9.17505C10.021 9.99512 10.4439 10.2387 10.4439 10.7259V10.8438C10.4439 11.1345 10.2406 11.4174 9.84203 11.7003C9.43534 11.991 9.03677 12.3368 8.63821 12.7454C8.23152 13.1462 8.0363 13.6569 8.0363 14.2699V28.0056C10.1674 24.9646 13.9253 23.4401 17.9515 23.4401C20.2697 23.4401 22.4903 23.9902 24.3692 25.106C25.1582 25.5618 25.8902 26.1197 26.5491 26.7719C28.7615 28.9878 30.128 32.2803 30.128 36.7044V49.1671C30.128 49.6622 30.2744 50.1101 30.5672 50.5108C30.6974 50.6916 30.8601 50.8723 31.0553 51.0373C31.1366 51.1159 31.2261 51.1788 31.3237 51.2495H31.3318C31.8443 51.6188 32.2022 51.9253 32.3811 52.1767C32.4787 52.3103 32.5275 52.4282 32.5275 52.5303Z" fill="#B4272D"/>
<path id="Vector_2" d="M51.5934 54.0001C46.6968 54.0001 42.7274 52.46 39.6691 49.3875C36.6107 46.315 35.0815 42.6139 35.0815 38.292C35.0815 33.9702 36.5538 30.5205 39.5064 27.6838C42.459 24.8549 46.1111 23.4326 50.4546 23.4326C55.1398 23.4326 58.9871 24.9256 62.0048 27.9274C65.0225 30.9213 66.5272 34.5988 66.5272 38.96C66.5272 43.3211 65.1363 46.8101 62.3545 49.6861C59.5727 52.5621 55.9857 53.9923 51.6015 53.9923M52.3498 51.9806C54.8388 51.9806 56.8967 50.967 58.5153 48.9239C60.1421 46.8887 60.9474 44.1777 60.9474 40.7909C60.9474 36.4769 59.89 32.8386 57.7833 29.884C55.6766 26.9294 53.0168 25.4521 49.8121 25.4521C47.1116 25.4521 44.9154 26.4579 43.2317 28.4774C41.548 30.4969 40.7021 33.1922 40.7021 36.579C40.7021 40.6573 41.8002 44.2405 43.9882 47.3366C46.1843 50.4326 48.9661 51.9806 52.3417 51.9806" fill="#B4272D"/>
<path id="Vector_3" d="M127.572 19.9202C126.263 19.9202 125.23 19.5744 124.473 18.8829C123.717 18.1914 123.334 17.272 123.334 16.1326C123.334 14.9932 123.725 14.066 124.506 13.3509C125.287 12.6358 126.311 12.2822 127.572 12.2822C128.833 12.2822 129.785 12.6358 130.549 13.3509C131.306 14.066 131.688 14.9932 131.688 16.1326C131.688 17.272 131.306 18.1914 130.549 18.8829C129.793 19.5744 128.8 19.9202 127.572 19.9202Z" fill="#B4272D"/>
<path id="Vector_4" d="M152.649 54.0001C147.761 54.0001 143.783 52.46 140.725 49.3875C137.666 46.315 136.137 42.6139 136.137 38.292C136.137 33.9702 137.609 30.5205 140.562 27.6838C143.515 24.8549 147.159 23.4326 151.51 23.4326C156.195 23.4326 160.043 24.9256 163.06 27.9274C166.078 30.9213 167.583 34.5988 167.583 38.96C167.583 43.3211 166.192 46.8101 163.41 49.6861C160.628 52.5621 157.041 53.9923 152.657 53.9923M153.406 51.9806C155.894 51.9806 157.952 50.967 159.571 48.9239C161.19 46.8887 162.003 44.1777 162.003 40.7909C162.003 36.4769 160.946 32.8386 158.839 29.884C156.732 26.9294 154.072 25.4521 150.868 25.4521C148.167 25.4521 145.971 26.4579 144.287 28.4774C142.604 30.4969 141.758 33.1922 141.758 36.579C141.758 40.6573 142.856 44.2405 145.052 47.3366C147.248 50.4326 150.03 51.9806 153.406 51.9806Z" fill="#B4272D"/>
<path id="Vector_5" d="M70.6187 52.6561V52.5382C70.6187 52.2553 71.0009 51.8231 71.7574 51.2573C72.5139 50.6837 72.8961 49.9922 72.8961 49.175V14.2699C72.8961 13.4526 72.5139 12.7533 71.7574 12.1639C71.0009 11.5746 70.6187 11.1345 70.6187 10.8516V10.7259C70.6187 10.2387 71.0416 9.99512 71.8794 9.99512H79.7856C80.6315 9.99512 81.0545 10.2387 81.0545 10.7259V10.8516C81.0545 11.1345 80.8511 11.4253 80.4526 11.7082C80.054 11.991 79.6473 12.3368 79.2487 12.7454C78.8502 13.154 78.6468 13.6648 78.6468 14.2699V49.1671C78.6468 49.9843 79.0454 50.6758 79.8506 51.2495C80.6559 51.8231 81.0545 52.2474 81.0545 52.5303V52.6482C81.0545 53.1354 80.6315 53.379 79.7856 53.379H71.8794C71.0335 53.379 70.6187 53.1354 70.6187 52.6482" fill="#B4272D"/>
<path id="Vector_6" d="M122.293 52.6563V52.5385C122.293 52.2556 122.676 51.8234 123.432 51.2576C124.189 50.684 124.571 49.9925 124.571 49.1753V27.723C124.571 26.9057 124.189 26.2064 123.432 25.617C122.676 25.0277 122.293 24.5876 122.293 24.3048V24.179C122.293 23.6918 122.716 23.4482 123.554 23.4482H131.46C132.306 23.4482 132.729 23.6918 132.729 24.179V24.3048C132.729 24.5876 132.526 24.8784 132.127 25.1613C131.729 25.4442 131.322 25.7899 130.923 26.1985C130.525 26.6071 130.322 27.1179 130.322 27.7308V49.1831C130.322 50.0003 130.72 50.6918 131.525 51.2655C132.331 51.8391 132.729 52.2634 132.729 52.5463V52.6642C132.729 53.1514 132.306 53.395 131.46 53.395H123.554C122.708 53.395 122.293 53.1514 122.293 52.6642" fill="#B4272D"/>
<path id="Vector_7" d="M114.802 12.7454C115.201 12.3368 115.599 11.991 115.998 11.7003C116.404 11.4174 116.6 11.1345 116.6 10.8438V10.7259C116.6 10.2387 116.177 9.99512 115.339 9.99512H107.425C106.587 9.99512 106.164 10.2387 106.164 10.7259V10.8438C106.164 10.9381 106.204 11.0481 106.294 11.1817C106.457 11.441 106.798 11.771 107.303 12.1639C108.059 12.7533 108.441 13.4526 108.441 14.2699V27.4084C106.034 24.7603 102.975 23.4401 99.2662 23.4401C95.0447 23.4401 91.5228 24.8624 88.7003 27.7148C85.8778 30.5673 84.4625 34.2213 84.4625 38.661C84.4625 43.1008 85.8941 46.8726 88.7654 49.7172C91.6285 52.5775 95.0691 53.9998 99.0792 53.9998C101.015 53.9998 102.804 53.6226 104.553 52.9232C106.912 51.9803 107.791 53.3869 109.157 53.3869H115.339C116.177 53.3869 116.6 53.1433 116.6 52.6561V52.5303C116.6 52.2474 116.201 51.8231 115.404 51.2495C114.599 50.6759 114.2 49.9843 114.2 49.1671V14.2699C114.2 13.6569 114.395 13.1462 114.802 12.7454ZM108.441 43.1793C108.441 45.9139 107.604 48.0591 105.944 49.6307C104.277 51.2023 102.43 51.9803 100.405 51.9803C97.2816 51.941 94.7357 50.4637 92.751 47.5484C90.7663 44.6409 89.8146 41.0655 89.9041 36.8222C89.9448 33.404 90.8232 30.638 92.5314 28.5399C94.2395 26.4419 96.46 25.3967 99.2012 25.3967C101.69 25.3967 103.854 26.3004 105.692 28.1156C107.522 29.9308 108.441 31.8717 108.441 33.9541V43.1793Z" fill="#B4272D"/>
<path id="Vector_8" d="M163.052 27.9273C160.035 24.9334 156.187 23.4404 151.51 23.4404C147.167 23.4404 143.515 24.8549 140.562 27.6837C137.609 30.5205 136.137 34.0566 136.137 38.292C136.137 42.5274 137.666 46.3071 140.725 49.3875C143.783 52.4599 147.752 54.0001 152.649 54.0001C157.033 54.0001 160.62 52.5621 163.402 49.6861C166.184 46.8179 167.575 43.2425 167.575 38.9599C167.575 34.6773 166.07 30.9291 163.052 27.9273ZM159.579 48.9238C157.952 50.9669 155.894 51.9806 153.406 51.9806C150.03 51.9806 147.248 50.4326 145.052 47.3365C142.864 44.2405 141.766 40.6572 141.766 36.579C141.766 33.2 142.612 30.4969 144.296 28.4774C145.987 26.4658 148.175 25.4521 150.876 25.4521C154.081 25.4521 156.74 26.9372 158.847 29.884C160.954 32.8386 162.011 36.4768 162.011 40.7987C162.011 44.1776 161.198 46.8886 159.579 48.9238Z" fill="#B4272D"/>
<path id="Vector_9" d="M171.894 6.49865C170.129 5.49283 168.177 5.42997 167.721 6.18433C167.266 6.9387 168.307 8.51815 170.072 9.52397C172.097 10.6005 173.635 10.6712 176.27 11.5906C176.538 11.6849 176.815 11.567 176.961 11.3313C176.961 11.3313 176.961 11.3313 176.961 11.3234C177.108 11.0877 177.067 10.7891 176.856 10.6084C174.716 8.84033 173.879 7.58305 171.894 6.49865Z" fill="#B4272D"/>
<path id="Vector_10" d="M189.894 6.18413C189.431 5.42976 187.478 5.49263 185.722 6.5063C183.745 7.5907 182.907 8.84012 180.768 10.616C180.557 10.7968 180.516 11.0875 180.662 11.3232C180.662 11.3232 180.662 11.3232 180.662 11.3311C180.801 11.5668 181.085 11.6847 181.354 11.5904C183.981 10.6789 185.526 10.6003 187.552 9.52377C189.309 8.51009 190.35 6.93849 189.902 6.18413" fill="#B4272D"/>
<path id="Vector_11" d="M178.881 0C177.978 0 177.043 1.66589 177.059 3.6461C177.026 5.83847 177.726 7.17433 178.222 9.8539C178.271 10.1211 178.523 10.3018 178.808 10.3018H178.816C179.101 10.3018 179.345 10.1289 179.393 9.8539C179.906 7.1979 180.613 5.87776 180.679 3.6461C180.662 1.67375 179.784 0.00785797 178.881 0Z" fill="#B4272D"/>
<path id="Vector_12" d="M187.544 15.1895C185.396 14.0422 183.794 14.0344 180.858 12.95C179.45 12.4706 179.271 11.2998 178.816 11.2998C178.36 11.2998 178.181 12.4706 176.766 12.95C173.83 14.0344 172.227 14.0501 170.08 15.1895C168.315 16.2032 167.282 17.7748 167.729 18.5291C168.185 19.2835 170.137 19.2285 171.902 18.2148C174.001 17.0676 174.814 15.7238 177.27 13.7751C177.636 13.4843 178.043 13.1779 178.491 12.8635C178.442 13.4057 178.377 13.9008 178.303 14.3644C177.815 17.4055 176.929 18.757 176.929 21.0516C176.929 23.0632 177.905 24.6977 178.824 24.6977C179.743 24.6977 180.719 23.0632 180.719 21.0516C180.719 18.757 179.833 17.4055 179.336 14.3644C179.263 13.9087 179.198 13.4136 179.149 12.8635C179.597 13.1779 180.003 13.4922 180.369 13.7751C182.818 15.7238 183.639 17.0597 185.73 18.2148C187.495 19.2285 189.447 19.2835 189.902 18.5291C190.358 17.7748 189.309 16.2032 187.56 15.1895" fill="#B4272D"/>
</g>
<defs>
<clipPath id="clip0_2121_94">
<rect width="190" height="54" fill="white"/>
</clipPath>
</defs>
</svg>
