<svg width="26" height="30" viewBox="0 0 26 30" fill="none" xmlns="http://www.w3.org/2000/svg">
<g id="Vrstva_1" clip-path="url(#clip0_2125_217)">
<path id="Vector" d="M4.96945 7.83842C2.9193 6.62519 0.651858 6.54936 0.122788 7.45928C-0.406281 8.36921 0.803021 10.2744 2.85317 11.4876C5.20564 12.7861 6.99125 12.8714 10.0523 13.9804C10.3641 14.0941 10.6853 13.952 10.8553 13.6676C10.8553 13.6676 10.8553 13.6676 10.8553 13.6581C11.0254 13.3738 10.9782 13.0136 10.7325 12.7956C8.24779 10.663 7.27468 9.14644 4.96945 7.83842Z" fill="white"/>
<path id="Vector_2" d="M25.8677 7.45942C25.3292 6.5495 23.0618 6.62533 21.0211 7.84803C18.7253 9.15605 17.7522 10.6631 15.2674 12.8052C15.0218 13.0232 14.9746 13.3739 15.1446 13.6583C15.1446 13.6583 15.1446 13.6583 15.1446 13.6678C15.3052 13.9521 15.6359 14.0943 15.9477 13.9805C18.9993 12.8811 20.7943 12.7863 23.1468 11.4877C25.1875 10.265 26.3968 8.36935 25.8772 7.45942" fill="white"/>
<path id="Vector_3" d="M13.0756 0C12.0269 0 10.9404 2.00941 10.9593 4.39796C10.9215 7.04243 11.734 8.65375 12.3103 11.8859C12.367 12.2081 12.6599 12.4261 12.9905 12.4261H13C13.3306 12.4261 13.6141 12.2176 13.6708 11.8859C14.266 8.68219 15.0879 7.08982 15.1635 4.39796C15.1446 2.01889 14.1243 0.00947837 13.0756 0Z" fill="white"/>
<path id="Vector_4" d="M23.1468 18.3217C20.6526 16.9378 18.7914 16.9284 15.3808 15.6203C13.7463 15.0422 13.5385 13.6299 13.0094 13.6299C12.4804 13.6299 12.2725 15.0422 10.6286 15.6203C7.218 16.9284 5.35681 16.9473 2.86263 18.3217C0.81248 19.5444 -0.387374 21.4401 0.132248 22.35C0.661317 23.2599 2.92876 23.1936 4.9789 21.9708C7.4164 20.587 8.36117 18.9662 11.2144 16.6156C11.6395 16.2649 12.1119 15.8952 12.6315 15.5161C12.5748 16.1701 12.4993 16.7672 12.4142 17.3264C11.8474 20.9946 10.8176 22.6249 10.8176 25.3925C10.8176 27.819 11.9513 29.7905 13.0189 29.7905C14.0865 29.7905 15.2202 27.819 15.2202 25.3925C15.2202 22.6249 14.1904 20.9946 13.6141 17.3264C13.529 16.7767 13.4535 16.1796 13.3968 15.5161C13.9164 15.8952 14.3888 16.2743 14.8139 16.6156C17.6577 18.9662 18.6119 20.5775 21.04 21.9708C23.0901 23.1936 25.3575 23.2599 25.8866 22.35C26.4157 21.4401 25.1969 19.5444 23.1657 18.3217" fill="white"/>
</g>
<defs>
<clipPath id="clip0_2125_217">
<rect width="26" height="29.8" fill="white"/>
</clipPath>
</defs>
</svg>
