<svg width="26" height="30" viewBox="0 0 26 30" fill="none" xmlns="http://www.w3.org/2000/svg">
<g id="Vrstva_1" clip-path="url(#clip0_2121_162)">
<path id="Vector" d="M4.96945 7.83866C2.9193 6.62543 0.651858 6.54961 0.122788 7.45953C-0.406281 8.36945 0.803021 10.2746 2.85317 11.4878C5.20564 12.7864 6.99125 12.8717 10.0523 13.9806C10.3641 14.0944 10.6853 13.9522 10.8553 13.6679C10.8553 13.6679 10.8553 13.6679 10.8553 13.6584C11.0254 13.374 10.9782 13.0139 10.7325 12.7959C8.24779 10.6632 7.27468 9.14668 4.96945 7.83866Z" fill="#B4272D"/>
<path id="Vector_2" d="M25.8678 7.45918C25.3293 6.54925 23.0618 6.62508 21.0211 7.84779C18.7253 9.15581 17.7522 10.6629 15.2675 12.805C15.0219 13.023 14.9746 13.3737 15.1447 13.658C15.1447 13.658 15.1447 13.658 15.1447 13.6675C15.3053 13.9519 15.636 14.094 15.9477 13.9803C18.9993 12.8808 20.7944 12.786 23.1469 11.4875C25.1876 10.2648 26.3969 8.3691 25.8772 7.45918" fill="#B4272D"/>
<path id="Vector_3" d="M13.0756 0C12.0269 0 10.9404 2.00941 10.9593 4.39796C10.9215 7.04243 11.734 8.65375 12.3103 11.8859C12.367 12.2081 12.6599 12.4261 12.9905 12.4261H13C13.3306 12.4261 13.6141 12.2176 13.6708 11.8859C14.266 8.68219 15.0879 7.08982 15.1635 4.39796C15.1446 2.01889 14.1243 0.00947837 13.0756 0Z" fill="#B4272D"/>
<path id="Vector_4" d="M23.1468 18.3217C20.6527 16.9378 18.7915 16.9284 15.3809 15.6203C13.7464 15.0422 13.5386 13.6299 13.0095 13.6299C12.4804 13.6299 12.2726 15.0422 10.6287 15.6203C7.21806 16.9284 5.35687 16.9473 2.86269 18.3217C0.812541 19.5444 -0.387313 21.4401 0.132309 22.35C0.661378 23.2599 2.92882 23.1936 4.97897 21.9708C7.41647 20.587 8.36123 18.9662 11.2144 16.6156C11.6396 16.2649 12.112 15.8952 12.6316 15.5161C12.5749 16.1701 12.4993 16.7672 12.4143 17.3264C11.8474 20.9946 10.8176 22.6249 10.8176 25.3925C10.8176 27.819 11.9513 29.7905 13.0189 29.7905C14.0865 29.7905 15.2202 27.819 15.2202 25.3925C15.2202 22.6249 14.1904 20.9946 13.6141 17.3264C13.5291 16.7767 13.4535 16.1796 13.3968 15.5161C13.9165 15.8952 14.3888 16.2743 14.814 16.6156C17.6577 18.9662 18.612 20.5775 21.04 21.9708C23.0902 23.1936 25.3576 23.2599 25.8867 22.35C26.4157 21.4401 25.197 19.5444 23.1657 18.3217" fill="#B4272D"/>
</g>
<defs>
<clipPath id="clip0_2121_162">
<rect width="26" height="29.8" fill="white"/>
</clipPath>
</defs>
</svg>
