<svg xmlns="http://www.w3.org/2000/svg" viewBox="0 0 663.16 271.74"><defs><style>.cls-1{fill:#000;}</style></defs><g id="Layer_2" data-name="Layer 2"><g id="Layer_1-2" data-name="Layer 1"><path class="cls-1" d="M41.18,271.74q-20.41,0-30.8-11.61T0,226.69V45.41Q0,23.59,10.38,11.79T41.18,0Q61.25,0,71.81,12T82.37,45.41V86.59H51.74V44.7q0-17.6-10.56-17.6-10.91,0-10.91,17.6v182q0,17.25,10.91,17.25,6,0,8.28-4.05t2.28-13.2v-51H82.37V227q0,21.48-10.56,33.09T41.18,271.74Z"/><path class="cls-1" d="M165.09,120.74v.7q9.84,2.82,13.37,10.21T182,153.12v115.1H151.36V152.77q0-17.6-14.79-17.6h-7V268.22H98.91V4.58h36.61q24.63,0,35.2,10.56t10.56,33.79V82.37q0,16.18-3.35,25.34A21.67,21.67,0,0,1,165.09,120.74ZM151,94V45.41q0-8.44-3.35-11.79t-10.73-3.35h-7.75v79.91h7.75Q151,110.18,151,94Z"/><path class="cls-1" d="M201.69,268.22V4.58H271V31.33H232v71.81h38.37v26.4H232V240.77H271v27.45Z"/><path class="cls-1" d="M345.31,268.22,341.08,214h-26.4l-4.58,54.2H279.48L306.23,4.58h46.82l23.23,263.64ZM328.06,45.76,317.14,185.15h21.48L329.11,45.76Z"/><path class="cls-1" d="M424.15,268.22H386.48V4.58h39.08q43.63,0,43.64,45.05V222.11Q469.2,268.24,424.15,268.22ZM438.58,45.41q0-8.44-3-11.79T425.2,30.27h-8.09v210.5h8.09q7.4,0,10.39-3.17t3-12Z"/><path class="cls-1" d="M558.61,260Q548.05,271.76,528,271.74T497.36,260q-10.56-11.79-10.56-33.26V45.41q0-21.46,10.56-33.44T528,0Q548,0,558.61,12t10.56,33.44V226.69Q569.17,248.16,558.61,260Zm-19.36-32.21V43.3q0-16.18-11.26-16.2-10.92,0-10.91,16.2V227.74q0,16.2,10.91,16.2Q539.26,243.94,539.25,227.74Z"/><path class="cls-1" d="M634.29,31.33V268.22H604V31.33H575.51V4.58h87.65V31.33Z"/></g></g></svg>
